<?xml version="1.0" encoding="utf-8"?>
<!-- Generator: Adobe Illustrator 23.0.2, SVG Export Plug-In . SVG Version: 6.00 Build 0)  -->
<svg version="1.1" id="レイヤー_1" xmlns="http://www.w3.org/2000/svg" xmlns:xlink="http://www.w3.org/1999/xlink" x="0px"
	 y="0px" viewBox="0 0 100 100" height="100px" style="enable-background:new 0 0 100 100;" xml:space="preserve">
<g>
	<path d="M7.9,42l-1.6-1.6l-3.9,3.9c-3.2,3.2-3.2,8.4,0,11.6l3.9,3.9L7.9,58L4,54.2c-2.3-2.3-2.3-6,0-8.3L7.9,42z"/>
	<path d="M45.8,4C47,2.9,48.5,2.3,50,2.3c1.5,0,3,0.6,4.2,1.7L58,7.9l1.6-1.6l-3.9-3.9c-3.2-3.2-8.4-3.2-11.6,0l-3.9,3.9L42,7.9
		L45.8,4z"/>
	<path d="M54.2,96c-2.3,2.3-6,2.3-8.3,0L42,92.1l-1.6,1.6l3.9,3.9c1.6,1.6,3.7,2.4,5.8,2.4s4.2-0.8,5.8-2.4l3.9-3.9L58,92.1L54.2,96
		z"/>
	<path d="M97.6,44.2l-3.9-3.9L92.1,42l3.9,3.9c2.3,2.3,2.3,6,0,8.3L92.1,58l1.6,1.6l3.9-3.9C100.8,52.6,100.8,47.4,97.6,44.2z"/>
	<path d="M73.4,32.8c-1.3-0.9-2.7-1.6-4.3-2c-1.6-0.4-3-0.6-4.4-0.6h-9.8l-4.2,29.9l-9-31.8c-4.1,7.3-8.2,14.5-12.3,21.7
		c-4.1,7.2-8.2,14.5-12.3,21.7h4.9c1.5-2.7,3.1-5.5,4.6-8.2c1.5-2.8,3.1-5.5,4.6-8.2h13.1c0.8,2.7,1.6,5.5,2.3,8.2
		c0.8,2.8,1.5,5.5,2.3,8.2H54l2.6-18.5h4h1c1,3.1,2,6.2,3.1,9.3c1,3.1,2,6.2,3.1,9.3h5.3l-6.2-18.9c2.9-0.6,5.3-1.9,7-3.9
		c1.8-2,2.9-4.5,3.3-7.5c0.3-2,0-3.7-0.7-5.2C75.7,34.9,74.7,33.7,73.4,32.8z M34,50.6c0.5-0.9,0.9-1.7,1.3-2.4
		c0.4-0.8,0.8-1.5,1.2-2.2c0.4-0.7,0.8-1.5,1.3-2.3c0.4-0.8,0.9-1.6,1.4-2.5c0,0,0.1-0.2,0.2-0.4c0.1-0.2,0.2-0.4,0.3-0.6
		c0.1-0.2,0.2-0.4,0.3-0.6c0.1-0.2,0.1-0.3,0.1-0.4c0.1,0.3,0.1,0.6,0.1,1s0,0.7,0.1,1c0.4,1.6,0.9,3.2,1.3,4.7
		c0.5,1.6,0.9,3.1,1.3,4.7H34z M72.3,41.1c-0.1,0.8-0.4,1.5-0.7,2.4c-0.4,0.8-1,1.6-1.7,2.3c-0.8,0.7-1.8,1.2-3,1.7
		c-1.2,0.5-2.7,0.7-4.4,0.7h-5.2l2-13.7h5.2c1.2,0,2.4,0.2,3.4,0.5c1,0.4,1.9,0.8,2.6,1.5c0.7,0.6,1.2,1.3,1.5,2.1
		C72.3,39.4,72.4,40.2,72.3,41.1z"/>
</g>
</svg>
