<?xml version="1.0" encoding="utf-8"?>
<!-- Generator: Adobe Illustrator 23.0.2, SVG Export Plug-In . SVG Version: 6.00 Build 0)  -->
<svg version="1.1" id="レイヤー_1" xmlns="http://www.w3.org/2000/svg" xmlns:xlink="http://www.w3.org/1999/xlink" x="0px"
	 y="0px" viewBox="0 0 100 100" height="100px" style="enable-background:new 0 0 100 100;" xml:space="preserve">
<style type="text/css">
	.st0{fill-rule:evenodd;clip-rule:evenodd;}
</style>
<g>
	<g>
		<path class="st0" d="M54.4,42.4L54.4,42.4c0.6,0.4,1.2,0.9,1.8,1.4V8.2c-2-0.3-4-0.5-6.1-0.5c-12.5,0-23.7,5.4-31.4,14L54.4,42.4z
			"/>
		<path class="st0" d="M58.7,50L58.7,50c0,0.7-0.1,1.5-0.3,2.2l30.8-17.8c-5.2-13-16.6-22.8-30.5-25.8V50z"/>
		<path class="st0" d="M50,43.9c-1,0-2.1,0.3-3.1,0.8c-1.4,0.8-2.4,2.1-2.9,3.7c-0.4,1.6-0.2,3.2,0.6,4.7c1.7,2.9,5.4,3.9,8.4,2.2
			c1.4-0.8,2.4-2.1,2.9-3.7c0.4-1.6,0.2-3.2-0.6-4.7C54.2,45,52.1,43.9,50,43.9z"/>
		<path class="st0" d="M45.6,57.6L45.6,57.6c-0.6-0.4-1.2-0.8-1.8-1.3v35.5c2,0.3,4,0.5,6.1,0.5c12.5,0,23.7-5.4,31.4-14L45.6,57.6z
			"/>
		<path class="st0" d="M54.4,57.6c-0.7,0.4-1.3,0.7-2,0.9l30.8,17.8c5.7-7.2,9.1-16.3,9.1-26.2c0-4.6-0.7-9-2.1-13.1L54.4,57.6z"/>
		<path class="st0" d="M45.6,42.4c0.7-0.4,1.4-0.6,2.1-0.8L16.9,23.8C11.2,31,7.7,40.1,7.7,50c0,4.6,0.7,9,2.1,13.1L45.6,42.4z"/>
		<path class="st0" d="M41.3,50L41.3,50c0-0.7,0.1-1.5,0.3-2.2L10.7,65.6c5.2,13,16.6,22.8,30.5,25.8V50z"/>
	</g>
	<path d="M50,100C22.4,100,0,77.6,0,50S22.4,0,50,0c27.6,0,50,22.4,50,50S77.6,100,50,100z M50,2.6C23.8,2.6,2.6,23.8,2.6,50
		S23.8,97.4,50,97.4c26.2,0,47.4-21.3,47.4-47.4S76.2,2.6,50,2.6z"/>
</g>
</svg>
