<?xml version="1.0" encoding="utf-8"?>
<!-- Generator: Adobe Illustrator 23.0.2, SVG Export Plug-In . SVG Version: 6.00 Build 0)  -->
<svg version="1.1" id="レイヤー_1" xmlns="http://www.w3.org/2000/svg" xmlns:xlink="http://www.w3.org/1999/xlink" x="0px"
	 y="0px" viewBox="0 0 100 100" height="100px" style="enable-background:new 0 0 100 100;" xml:space="preserve">
<g>
	<path d="M14.5,20.4c0-3.2,2.6-5.9,5.9-5.9h5.5l0-2.3l-5.5,0c-4.5,0-8.2,3.7-8.2,8.2l0,5.5l2.3,0V20.4z"/>
	<path d="M79.6,12.2l-5.5,0v2.3h5.5c1.6,0,3.1,0.7,4.2,1.7c1.1,1.1,1.7,2.5,1.7,4.2l0,5.5l2.3,0v-5.5C87.8,15.9,84.1,12.2,79.6,12.2
		z"/>
	<path d="M20.4,85.5c-3.2,0-5.9-2.6-5.9-5.9v-5.5h-2.3l0,5.5c0,2.3,0.9,4.3,2.4,5.8c1.5,1.5,3.5,2.4,5.8,2.4h5.5l0-2.3L20.4,85.5z"
		/>
	<path d="M85.5,79.6c0,3.2-2.6,5.9-5.9,5.9l-5.5,0v2.3h5.5c4.5,0,8.2-3.7,8.2-8.2v-5.5h-2.3L85.5,79.6z"/>
	<path d="M68.3,51.1h9.5v-2.3h-9.5c-0.6-9.2-7.9-16.5-17.1-17.1v-9.5h-2.3v9.5c-9.2,0.6-16.5,7.9-17.1,17.1h-9.5v2.3h9.5
		c0.6,9.2,7.9,16.5,17.1,17.1v9.5h2.3v-9.5C60.3,67.7,67.7,60.3,68.3,51.1z M51.1,66v-7.9h-2.3V66c-7.9-0.6-14.3-6.9-14.8-14.8h7.9
		v-2.3H34c0.6-7.9,6.9-14.3,14.8-14.8v7.9h2.3V34c7.9,0.6,14.3,6.9,14.8,14.8h-7.9v2.3H66C65.4,59.1,59.1,65.4,51.1,66z"/>
</g>
</svg>
