<?xml version="1.0" encoding="utf-8"?>
<!-- Generator: Adobe Illustrator 23.0.2, SVG Export Plug-In . SVG Version: 6.00 Build 0)  -->
<svg version="1.1" id="レイヤー_1" xmlns="http://www.w3.org/2000/svg" xmlns:xlink="http://www.w3.org/1999/xlink" x="0px"
	 y="0px" viewBox="0 0 100 100" height="100px" style="enable-background:new 0 0 100 100;" xml:space="preserve">
<style type="text/css">
	.st0{fill:#231815;}
</style>
<g>
	<path class="st0" d="M50,9.8V47l34.9,31.5c7.2-14.7,4.2-33.8-8.7-50.8c-7-9.2-23-24.7-23.7-25.4L50,0l-2.5,2.4
		c-0.6,0.6-14,13.6-21.7,22.8l5.2,4.7C36.6,23.3,45.7,14.1,50,9.8z"/>
	<path class="st0" d="M92.1,94.2L11.4,21.4l-4.7,5.2L18,36.8C7.9,55.6,9.2,75.5,22.3,88.6C29.7,96,39.5,100,49.8,100
		c0.1,0,0.2,0,0.3,0c9.9,0,19.2-3.7,26.4-10.3l10.9,9.8L92.1,94.2z M50,92.9C50,92.9,50,92.9,50,92.9c-0.1,0-0.1,0-0.1,0
		c-8.5,0-16.5-3.3-22.5-9.3c-10.6-10.6-11.9-26.4-4-42l26.6,24V92.9z"/>
</g>
</svg>
