<?xml version="1.0" encoding="utf-8"?>
<!-- Generator: Adobe Illustrator 23.0.2, SVG Export Plug-In . SVG Version: 6.00 Build 0)  -->
<svg version="1.1" id="レイヤー_1" xmlns="http://www.w3.org/2000/svg" xmlns:xlink="http://www.w3.org/1999/xlink" x="0px"
	 y="0px" viewBox="0 0 100 100" height="100px" style="enable-background:new 0 0 100 100;" xml:space="preserve">
<path d="M38.5,96.7l-4.5-6.2c-0.3-0.4-0.6-0.8-0.8-1.2L32.9,89c-1.7-0.4-3.2-1.4-4.5-2.8h0c-1.2,0.1-2.2,0.2-3.3,0.1
	c-0.7,0-2.3-0.1-4-0.9c-3.6,1.4-6.7,1.2-9.3-0.2c-3.6-2-4.6-5.7-5.2-7.7c-0.1-0.4-0.2-0.6-0.2-0.7c-0.1-0.4-0.3-0.9-0.3-1.4
	c-1.8-2.6-2.4-5.7-1.9-9.1c-3.3-3.4-6.1-7.8-2.4-14.5c-0.2-2.5,0.5-5.1,2.1-7.2c2.1-2.7,4.1-5.1,6.1-7.4c0,0,0.4-0.4,0.7-0.7
	c0.1-2.6,1.4-5.1,3.8-7.3c5.5-4.8,11.3-9.9,17.1-14.8c1.7-1.5,3.5-2,4.7-2.4c0.2-0.1,0.4-0.1,0.5-0.2l1.3-0.5
	c0.2-0.1,0.4-0.1,0.6-0.2c0.6-0.5,1.4-1.2,2.2-1.9L41,9c1.1-0.9,2.1-1.9,3.3-2.7c3.3-2.5,7.5-2.8,11-1c1.4-0.9,2.8-1.5,4.3-1.7
	l2-0.3l3.7,1.4c1.4,0.5,2.8,1,4.1,1.5c1.8,0.7,3.4,1.9,4.5,3.4c0.2,0.3,0.5,0.7,0.8,1c1.1,1.3,2.6,3.2,3.6,5.7
	c2.1-0.1,3.9,0.3,5.5,1.1c3.2,1.6,5.4,4.6,6,8.1c3,0.6,6.8,2.5,9.2,8.5c2.5,6.3-0.3,12.1-2.1,16l-0.3,0.6c-0.8,1.7-1.8,3.1-2.7,4.1
	c-0.2,0.3-0.7,0.9-0.9,1.3c0.7,4.3-1.6,8.7-6.1,11.3c-0.1,0.1-0.1,0.2-0.2,0.4l-0.2,0.3c-0.5,0.9-1.2,1.9-2,3
	c-1.8,2.2-3.7,4.4-5.6,6.6l-0.2,0.3c-1.4,1.6-2.8,3.2-4.2,4.9c-0.7,0.8-1.3,1.6-1.9,2.4l-0.8-0.4l0.7,0.5c-1.4,1.7-2.8,3.6-4.5,5.3
	c-2,2-4.2,3.3-6,4.4l-2.3,1.4l-2.3,0.1c-1.7,0-3.5-0.5-5-1.5c-1.1,0.5-2.3,0.7-3.5,0.7c-1.5,0-3.7-0.4-5.8-2.1L38.5,96.7z
	 M52.3,92.9l0.4,0.3c1.3,0.9,3,1.4,4.5,1.4l1.9,0l1.9-1.1c1.7-1,3.9-2.3,5.7-4.1c1.6-1.7,3.1-3.5,4.4-5.2l0.1-0.2
	c0.7-0.8,1.3-1.6,2-2.4c1.4-1.6,2.8-3.3,4.2-4.9l0.2-0.3c1.9-2.2,3.8-4.3,5.6-6.5c0.8-0.9,1.4-1.9,1.9-2.8l0.1-0.3
	c0.1-0.2,0.2-0.4,0.4-0.6l0.3-0.3c4-2.3,6.1-6.2,5.4-9.9l0-0.2l0.1-0.2c0.1-0.4,0.5-0.9,1.2-1.8c0.8-1.1,1.8-2.3,2.5-3.9l0.3-0.6
	c1.7-3.6,4.3-9.1,2.1-14.7c-2.2-5.6-5.9-7.2-8.5-7.5l-0.7-0.1l-0.1-0.7c-0.3-3.2-2.2-5.9-5.1-7.4c-1.5-0.8-3.3-1-5.3-0.9l-0.7,0
	l-0.2-0.6c-0.8-2.5-2.4-4.4-3.4-5.6c-0.4-0.4-0.7-0.8-0.9-1.2c-0.9-1.3-2.3-2.3-3.8-2.9c-1.4-0.5-2.7-1-4.1-1.5L61.4,5l-1.6,0.3
	c-1.4,0.2-2.8,0.8-4,1.8l-0.5,0.3l-0.5-0.3c-3.1-1.8-6.7-1.6-9.6,0.6c-1.1,0.8-2.1,1.7-3.2,2.6l-0.2,0.2c-0.8,0.7-1.6,1.4-2.4,2
	c-0.4,0.2-0.6,0.3-0.9,0.4l-1.3,0.5c-0.2,0.1-0.4,0.1-0.5,0.2c-1.2,0.4-2.8,0.9-4.2,2.1c-5.8,4.9-11.6,10-17.1,14.8
	c-2.1,1.9-3.3,4.1-3.2,6.3l0,0.3l-1.1,1.2c-1.9,2.2-3.9,4.6-6,7.3c-1.1,1.4-2.1,3.7-1.7,6.2l0,0.3l-0.1,0.2c-3.2,5.7-1.4,9.3,2.3,13
	L6,65.6l-0.1,0.4c-0.5,3.3,0,6.1,1.7,8.5l0.1,0.4c0.1,0.4,0.1,0.8,0.3,1.2c0.1,0.2,0.1,0.4,0.2,0.7c0.6,2.2,1.4,5.2,4.4,6.9
	c2.2,1.2,4.9,1.3,8.2,0l0.3-0.1l0.3,0.2c1.5,0.7,3.1,0.8,3.7,0.8c1,0.1,1.9,0,3-0.1l0.9-0.1l0.3,0.3c1.2,1.5,2.6,2.4,4.1,2.7
	l0.3,0.1l0.6,0.9c0.3,0.4,0.5,0.8,0.8,1.2l0,0l3.5,4.8l4.1-3.1l0.5,0.5c1.9,1.7,3.8,2.1,5.2,2.1c1.1,0,2.2-0.2,3.2-0.7L52.3,92.9z"
	/>
</svg>
