<?xml version="1.0" encoding="utf-8"?>
<!-- Generator: Adobe Illustrator 23.0.2, SVG Export Plug-In . SVG Version: 6.00 Build 0)  -->
<svg version="1.1" id="レイヤー_1" xmlns="http://www.w3.org/2000/svg" xmlns:xlink="http://www.w3.org/1999/xlink" x="0px"
	 y="0px" viewBox="0 0 100 100" height="100px" style="enable-background:new 0 0 100 100;" xml:space="preserve">
<path d="M38.5,96.7L34,90.5c-0.3-0.4-0.6-0.8-0.8-1.2L32.9,89c-1.7-0.4-3.2-1.4-4.5-2.8l0,0c-1.2,0.1-2.2,0.2-3.3,0.1
	c-0.7,0-2.3-0.1-4-0.9c-3.6,1.4-6.7,1.2-9.3-0.2c-3.6-2-4.6-5.7-5.2-7.7c-0.1-0.4-0.2-0.6-0.2-0.7c-0.1-0.4-0.3-0.9-0.3-1.4
	c-1.8-2.6-2.4-5.7-1.9-9.1c-3.3-3.4-6.1-7.8-2.4-14.5c-0.2-2.5,0.5-5.1,2.1-7.2C6,41.9,8,39.5,10,37.2c0,0,0.4-0.4,0.7-0.7
	c0.1-2.6,1.4-5.1,3.8-7.3c5.5-4.8,11.3-9.9,17.1-14.8c1.7-1.5,3.5-2,4.7-2.4c0.2-0.1,0.4-0.1,0.5-0.2l1.3-0.5
	c0.2-0.1,0.4-0.1,0.6-0.2c0.6-0.5,1.4-1.2,2.2-1.9L41,9c1.1-0.9,2.1-1.9,3.3-2.7c3.3-2.5,7.5-2.8,11-1c1.4-0.9,2.8-1.5,4.3-1.7
	l2-0.3l3.7,1.4c1.4,0.5,2.8,1,4.1,1.5c1.8,0.7,3.4,1.9,4.5,3.4c0.2,0.3,0.5,0.7,0.8,1c1.1,1.3,2.6,3.2,3.6,5.7
	c2.1-0.1,3.9,0.3,5.5,1.1c3.2,1.6,5.4,4.6,6,8.1c3,0.6,6.8,2.5,9.2,8.5c2.5,6.3-0.3,12.1-2.1,16l-0.3,0.6c-0.8,1.7-1.8,3.1-2.7,4.1
	C93.7,55,93.2,55.6,93,56c0.7,4.3-1.6,8.7-6.1,11.3c-0.1,0.1-0.1,0.2-0.2,0.4L86.5,68c-0.5,0.9-1.2,1.9-2,3
	c-1.8,2.2-3.7,4.4-5.6,6.6l-0.2,0.3c-1.4,1.6-2.8,3.2-4.2,4.9c-0.7,0.8-1.3,1.6-1.9,2.4l-0.8-0.4l0.7,0.5c-1.4,1.7-2.8,3.6-4.5,5.3
	c-2,2-4.2,3.3-6,4.4l-2.3,1.4l-2.3,0.1c-1.7,0-3.5-0.5-5-1.5c-1.1,0.5-2.3,0.7-3.5,0.7c-1.5,0-3.7-0.4-5.8-2.1L38.5,96.7z
	 M58.5,92.4l1.7-1c1.6-1,3.4-2.1,5-3.7c1.1-1.1,2.1-2.4,3.1-3.6c0.4-0.5,0.7-0.9,1.1-1.4l0,0c0.6-0.8,1.3-1.7,2-2.6
	c1.4-1.6,2.7-3.2,4.1-4.7l0.2-0.3l0.2-0.2c1.8-2.1,3.7-4.3,5.5-6.4c0.6-0.9,1.3-1.8,1.7-2.5l0.1-0.1l0.1-0.1
	c0.1-0.3,0.4-0.8,0.9-1.3l0.4-0.4l0.5-0.3c3-1.7,4.6-4.5,4.2-7.2l-0.2-1.3l0.6-1.2c0.3-0.6,0.7-1.1,1-1.5l0.1-0.2l0.2-0.2l0.2-0.2
	c0.5-0.5,1.3-1.6,2.1-3.2l0.3-0.5l0.1-0.2c1.7-3.6,3.7-8,1.9-12.6C93.9,32,91.8,30,89,29.4l-2.7-0.5l-0.5-2.7C85.4,23.9,84,22,82,21
	c-0.9-0.5-1.9-0.7-3.1-0.7c-0.1,0-0.3,0-0.4,0l-2.8,0.1l-1.1-2.6c-0.7-1.8-1.8-3.3-2.9-4.5c-0.5-0.5-0.9-1-1.1-1.4
	c-0.6-0.8-1.6-1.6-2.7-2c-1.3-0.5-2.6-1-4-1.5l-2.8-1.1l-1,0.2c-0.8,0.1-1.7,0.5-2.7,1.1l-1.9,1.2l-2.1-1.1
	c-0.9-0.5-1.9-0.7-2.9-0.7c-1.4,0-2.7,0.5-3.9,1.3l-0.1,0.1l-0.1,0.1c-0.6,0.4-1.2,0.9-1.8,1.5c-0.2,0.1-0.3,0.3-0.5,0.4l-0.1,0.2
	l-0.6,0.5c-0.8,0.7-1.6,1.4-2.3,2l-0.4,0.3l-0.4,0.2c-0.4,0.2-0.8,0.3-1,0.4l-1,0.4c-0.3,0.1-0.5,0.2-0.7,0.3l-0.6,0.2
	c-1,0.3-2,0.7-3,1.5c-4.9,4.1-9.7,8.3-14.4,12.5l-2.6,2.2c-1.6,1.5-2.4,3-2.5,4.5l-0.1,1.6l-1.7,1.7c-2.1,2.5-4,4.7-5.8,7.1
	c-0.9,1.2-1.4,2.9-1.3,4.5l0.1,1.2l-0.6,1.1c-2.4,4.3-1.2,6.7,1.8,9.8l1.4,1.4l-0.3,2c-0.4,2.5,0,4.5,1.2,6.2l0.7,1v1
	c0,0,0,0.1,0,0.1c0.1,0.2,0.1,0.3,0.1,0.5l0,0.1c0,0.1,0.1,0.3,0.2,0.5l0,0.1c0.5,1.7,1.2,4,3.2,5.1c0.8,0.5,1.7,0.7,2.7,0.7
	c1,0,2.1-0.2,3.2-0.7l1.6-0.6l1.6,0.7c1,0.5,2,0.5,2.3,0.5h0.2l0.2,0c0.2,0,0.4,0,0.6,0c0.5,0,1.1,0,1.7-0.1l2.2-0.2l1.3,1.4
	c0.8,0.9,1.7,1.4,2.5,1.6l1.1,0.3l1.6,1.5l0.3,0.6c0.1,0.1,0.3,0.4,0.5,0.6l2.2,3.1l3.9-2.6l2.3,1.9c1.2,1,2.5,1.2,3.3,1.2
	c0.7,0,1.3-0.1,1.8-0.3l2-0.9l1.9,1.2c0.8,0.5,1.8,0.8,2.7,0.8L58.5,92.4z"/>
</svg>
