<?xml version="1.0" encoding="utf-8"?>
<!-- Generator: Adobe Illustrator 23.0.2, SVG Export Plug-In . SVG Version: 6.00 Build 0)  -->
<svg version="1.1" id="レイヤー_1" xmlns="http://www.w3.org/2000/svg" xmlns:xlink="http://www.w3.org/1999/xlink" x="0px"
	 y="0px" viewBox="0 0 100 100" height="100px" style="enable-background:new 0 0 100 100;" xml:space="preserve">
<path d="M57.2,90.7c-1,0-2.4-0.6-3.1-1.5c-0.7-1-1.1-1.4-1.3-1.5c-0.1,0.1-0.5,0.3-1.2,0.9c-1,0.9-2,1.4-3,1.4
	c-1.8,0-2.8-1.4-3.2-1.8c-0.5-0.6-1.4-1.8-1.8-2c-0.5,0.2-1.7,1.1-2.4,1.6l-1.6,1.2l-1.2-1.6c-0.3-0.3-0.5-0.7-0.7-1.1
	c-1.1-1.7-1.7-2.5-3.1-2.5c-1.7-0.1-2.5-1.7-3.2-2.9c0,0-0.5-1-0.7-1.2c-0.1,0.1-0.8,0.9-0.8,0.9l-0.9,0.1c-0.4,0-0.8,0.1-1.2,0.1
	c-0.6,0.1-1.2,0.1-1.8,0.1c-0.2,0-0.4,0-0.6,0c-1.2-0.1-2.6-0.3-3.5-1.4c-0.1-0.1-0.2-0.2-0.2-0.3c-0.1,0-0.4,0.1-0.9,0.4
	c-1.2,0.6-2.9,1.4-4.5,1.4c-0.7,0-1.3-0.1-1.8-0.4c-1.6-0.9-2.1-2.7-2.5-4.3c-0.1-0.4-0.2-0.7-0.3-1c-0.2-0.6-0.2-1.2-0.1-1.6
	c-2.6-2.7-2.2-5.7-1.5-8.4c-0.1-0.4-0.8-1.4-1.8-2.3c-3-3-3.9-4.9-1.2-9.1l0.2-0.3c0.1-0.2,0.3-0.5,0.4-0.6c0,0,0-0.1-0.1-0.1
	c-1-1.5,0-3.6,0.6-4.4c2-2.6,3.9-4.9,5.8-7.1c0.2-0.2,0.4-0.5,0.7-0.7c1.3-1.3,1.7-1.9,1.5-3c-0.3-1.6,1-3.1,1.8-3.8
	c5.4-4.8,11.3-9.9,17-14.7c0.9-0.7,1.9-1.1,2.8-1.3c0.4-0.1,0.7-0.2,1-0.3c0.3-0.1,0.6-0.2,0.9-0.4c0.7-0.3,1.4-0.6,1.9-0.9
	c1-0.7,1.9-1.5,2.9-2.4c1-0.8,1.9-1.7,3-2.5c0.9-0.7,1.8-1,2.8-1c2.1,0,3.7,1.6,4.4,2.4c0.3,0.3,0.5,0.5,0.7,0.6
	c0.1-0.1,0.3-0.3,0.6-0.6c1.3-1.6,2.9-2.7,4.4-3L61,9.1l2,0.7c1.4,0.5,2.9,1,4.3,1.6c0.8,0.3,1.6,0.9,2.1,1.6
	c0.3,0.4,0.7,0.9,1.1,1.3c1.6,1.9,3.6,4.3,2.8,7.6c0.2,0.1,0.4,0.2,0.6,0.2c0.1,0,0.2,0,0.4,0c0.2,0,0.5,0,0.7,0c0.3,0,0.6,0,0.8,0
	c0.4,0,0.8-0.1,1.3-0.1c0.6-0.1,1.2-0.1,1.8-0.1c1,0,1.7,0.2,2.4,0.5c2.3,1.1,3.9,3.9,2.5,7c-0.4,0.9-0.8,1.9-1.2,3
	c0.1,0,0.3-0.1,0.4-0.1c1.9-1,3.4-1.4,4.8-1.4c4,0,5.5,3.9,6,5.1c1.6,4-0.4,8.2-2,11.5l-0.3,0.6c-0.5,1.2-1.3,2.2-2,3.1
	c-1.5,1.9-2.4,3.2-2,5.1c0.4,2.5-1.1,5-3.9,6.4C82.9,63,82.3,64,81.7,65c-0.5,0.8-0.9,1.5-1.5,2.3c-1.9,2.3-3.9,4.6-5.8,6.8
	c-1.4,1.6-2.8,3.3-4.2,4.9c-0.7,0.9-1.5,1.8-2.2,2.7c-1.3,1.6-2.7,3.3-4.2,4.9C62.4,88,60.6,89,59,90l-0.5,0.3
	C58.1,90.5,57.6,90.7,57.2,90.7z"/>
</svg>
