<?xml version="1.0" encoding="utf-8"?>
<!-- Generator: Adobe Illustrator 23.0.2, SVG Export Plug-In . SVG Version: 6.00 Build 0)  -->
<svg version="1.1" id="レイヤー_1" xmlns="http://www.w3.org/2000/svg" xmlns:xlink="http://www.w3.org/1999/xlink" x="0px"
	 y="0px" viewBox="0 0 100 100" height="100px" style="enable-background:new 0 0 100 100;" xml:space="preserve">
<path d="M78.7,47.9V2.7H0v94.6h24l4.5-32.4h-7.4l1.3-9.3h7.4L32,40.3c0.6-4.3,1.9-8.1,3.7-11.4s4.2-6.1,7-8.4c2.8-2.3,6-4,9.5-5.2
	c3.5-1.2,7.3-1.9,11.3-2l-1.3,9.1c-5.4,0.3-10,2-13.8,5.1c-3.8,3.1-6.1,7.5-7,13.1l-2.2,15h13.5l-1.3,9.3H38.1l-4.5,32.4h45.1
	L100,47.9H78.7z M78.7,55.5h9.8l-9.8,22.6V55.5z"/>
</svg>
