<svg xmlns="http://www.w3.org/2000/svg" width="19.122" height="31.709" viewBox="0 0 19.122 31.709">
  <path id="パス_81" data-name="パス 81" d="M32.9,43.073H28.05V38.54H32.9ZM37.929,25.51,35.745,27.6a7.874,7.874,0,0,0-2.524,3.83,9.74,9.74,0,0,0-.316,2.583H28.05V32.875a8.619,8.619,0,0,1,.534-2.969,8.994,8.994,0,0,1,2.306-3.444l3.01-2.855a4.264,4.264,0,0,0,1.335-4.079,4.641,4.641,0,0,0-3.374-3.467,4.972,4.972,0,0,0-6,2.878,2.121,2.121,0,0,1-1.99,1.473h-.728a1.99,1.99,0,0,1-1.99-2.538A9.54,9.54,0,0,1,29,11.461a10.151,10.151,0,0,1,9.394,4.079C41.255,19.233,40.405,23.2,37.929,25.51Z" transform="translate(-21.07 -11.363)" fill="#fff"/>
</svg>
