<?xml version="1.0" encoding="utf-8"?>
<!-- Generator: Adobe Illustrator 23.0.2, SVG Export Plug-In . SVG Version: 6.00 Build 0)  -->
<svg version="1.1" id="レイヤー_1" xmlns="http://www.w3.org/2000/svg" xmlns:xlink="http://www.w3.org/1999/xlink" x="0px"
	 y="0px" viewBox="0 0 100 100" height="100px" style="enable-background:new 0 0 100 100;" xml:space="preserve">
<style type="text/css">
	.st0{fill:#231815;}
</style>
<path class="st0" d="M76.2,27.7c-7-9.2-23-24.7-23.7-25.4L50,0l-2.5,2.4C46.9,3,30.8,18.5,23.8,27.7C7.7,48.9,7.1,73.4,22.3,88.6
	C29.7,96,39.5,100,49.8,100c0.1,0,0.2,0,0.3,0c10.4,0,20.2-4,27.5-11.4C92.9,73.4,92.3,48.9,76.2,27.7z M49.9,92.9
	c-8.5,0-16.5-3.3-22.5-9.3c-12.8-12.8-12-33.1,2.1-51.6C34.6,25.3,45.2,14.6,50,9.8v83.1c0,0,0,0,0,0C49.9,92.9,49.9,92.9,49.9,92.9
	z"/>
</svg>
