<?xml version="1.0" encoding="utf-8"?>
<!-- Generator: Adobe Illustrator 23.0.2, SVG Export Plug-In . SVG Version: 6.00 Build 0)  -->
<svg version="1.1" id="レイヤー_1" xmlns="http://www.w3.org/2000/svg" xmlns:xlink="http://www.w3.org/1999/xlink" x="0px"
	 y="0px" viewBox="0 0 100 100" height="100px" style="enable-background:new 0 0 100 100;" xml:space="preserve">
<style type="text/css">
	.st0{fill-rule:evenodd;clip-rule:evenodd;}
</style>
<path class="st0" d="M84.8,31.9c-0.7-2.1-1.5-4.2-2.6-6.2l5-6.1L73.1,5.4l-6.1,5c-2-1-4-1.9-6.2-2.6L60,0H40l-0.8,7.9
	C37.1,8.5,35,9.4,33,10.4l-6.1-5L12.8,19.5l5,6.1c-1,2-1.9,4-2.6,6.2l-7.9,0.8v10v10V100h85.3V52.6v-10v-10L84.8,31.9z M11.3,36.3
	l7-0.7l0.4-1.3c0.7-2.7,1.8-5.3,3.2-7.8l0.7-1.2l-4.4-5.4l9-9l5.5,4.4l1.2-0.7c2.4-1.4,5-2.5,7.8-3.2l1.3-0.4l0.7-7h12.7l0.7,7
	l1.3,0.4c2.7,0.7,5.3,1.8,7.8,3.2l1.2,0.7l5.5-4.4l9,9l-4.4,5.4l0.7,1.2c1.4,2.4,2.5,5,3.2,7.8l0.4,1.3l7,0.7V49l-7,0.7l-0.4,1.3
	c-0.7,2.7-1.8,5.3-3.2,7.8L77.4,60l4.4,5.4l-9,9l-5.5-4.4l-1.2,0.7c-2.4,1.4-5,2.5-7.8,3.2l-1.3,0.4L56.4,81H43.6l-0.7-6.7L41.6,74
	c-2.7-0.7-5.3-1.8-7.8-3.2l-1.2-0.7l-5.5,4.4l-9-9l4.4-5.4l-0.7-1.2c-1.4-2.4-2.5-5-3.2-7.8l-0.4-1.3l-7-0.7V36.3z"/>
</svg>
