<?xml version="1.0" encoding="utf-8"?>
<!-- Generator: Adobe Illustrator 23.0.2, SVG Export Plug-In . SVG Version: 6.00 Build 0)  -->
<svg version="1.1" id="レイヤー_1" xmlns="http://www.w3.org/2000/svg" xmlns:xlink="http://www.w3.org/1999/xlink" x="0px"
	 y="0px" viewBox="0 0 128 128" style="enable-background:new 0 0 128 128;" xml:space="preserve">
<style type="text/css">
	.st0{clip-path:url(#SVGID_2_);fill:#FFFDEC;}
	.st1{clip-path:url(#SVGID_2_);fill:#C3C875;}
	.st2{clip-path:url(#SVGID_2_);fill:#777777;}
</style>
<g>
	<defs>
		<rect id="SVGID_1_" width="128" height="128"/>
	</defs>
	<clipPath id="SVGID_2_">
		<use xlink:href="#SVGID_1_"  style="overflow:visible;"/>
	</clipPath>
	<rect class="st0" width="128" height="128"/>
	<path class="st1" d="M124.5,71.3c-0.1-0.4-0.2-0.7-0.5-1c-0.8-1.1-2.1-1.6-3.4-1.9c-1.3-0.4-2.6-0.7-3.7-1.5c-1.5-1.2-2-3.2-2.9-5
		c-1.1-2.3-4.1-2.6-4.8-4.5c-0.8-2.1,2-4.8,3.8-5.2c1.1-0.3,2.6-0.4,2.9-1.5c0.2-0.7-0.3-1.5-0.3-2.3c-0.1-2.4,3.7-3.2,3.9-5.6
		c0.2-1.9-2.1-3-2.7-4.8c-0.6-1.6,0.3-3.4,0.7-5.1c1.2-4.5-0.8-9.1-2.5-13.4c-2.5-6.3-1.4-11.5-1.4-17.9c0-1.4-1.2-1.8-0.2-3.2
		c0.6-0.8,1.3-1.6,1.8-2.5c1.3-2.3,7.7,0.8,7.9-2.1c-5.7,0-11.4,0-17.1,0c-20.7,0-41.4,0-62.2,0c0.2,0.9-1.9,3.7-3.2,5
		c1.4-1.4,3.4-4.2,3.2-5c-1.8,0-3.6,0-5.5,0c0,0.2,0,0.4-0.1,0.5c-3.1,1.7-6.7,0.1-9.9,1.8c-3.3,1.8-5.9,4.2-6.4,8.1
		c-0.1,0.9-0.2,2-0.9,2.6c-0.6,0.5-1.4,0.5-2.2,0.7c-3.8,0.8-5.4,5.5-5.6,9.4s0.1,8.3-2.4,11.3c-1,1.2-2.4,2.1-3.6,3.1
		c-1.2,1-2.3,2.3-2.5,3.9c-0.3,3.3,5.9,4.7,3.1,8.4c-3.8,5-2.9,10.4-1,16.2c2.4,7.2,5.4,14.3,10,20.3c4.6,6,9.4,13.6,20.3,12.7
		c3.1-0.3,4.4,0.5,7.2,1.7c6.1,2.6,5.9,9.7,4.2,15.1c-2,6.6-3.7,12.6-1.5,19.5c0.6,1.9,1.5,3.8,3.2,4.9c1.6,1.1,4.2,1.1,5.4-0.5
		c1.6-2,4.3-2.7,6.8-2.9c2.5-0.2,5.1-0.1,7.5-0.8c3.9-1.2,6.9-4.5,8.7-8.1c1.9-3.9,2.8-8.6,3.3-12.9c0.4-3.8,1-5.6,3.5-8.7
		c6.3-8.2,9.9-18.3,15.9-26.7c0.7-1,1.7-2.1,3-2c1.9,0.2,2.3,2.8,3.9,3.9c1.5,1,3.6,0.2,5.2-0.8c1.6-1,3.3-2.2,5.1-1.8
		c1.8,0.3,3.5,2.1,5.1,1.3C124.4,73.4,124.7,72.3,124.5,71.3z M72.5,88.2c-0.4,0.4-0.9,0.8-1.4,1.1c-2.9,1.4-6.5,1.2-9.1-0.6
		c-1.6-1-3.4-2.6-5-1.7c-0.8,0.4-1.2,1.3-1.9,1.9c-1.3,1.1-3.5,0.5-4.6-0.8s-1.6-3-2.1-4.7c-0.5-1.7-1-3.4-2.3-4.5
		c-2.7-2.5-8-1.7-9.4-5.1c-0.6-1.5-0.1-3.3,0.2-4.9c0.6-4.2-0.8-8.4-2-12.4c-1.3-4.4-1.3-8.2-1.3-12.7c1-2.9,4.2-5.2,7.3-4
		c1.5,0.6,2.6,1.7,3.9,2.7c1.2,1,2.7,1.9,4.3,1.8c1.5-0.1,3.3-0.6,4.3-1.7c1.4-1.5,2.3-3.1,3.6-4.7c1.2-1.6,2.9-4.6,5-5.1
		c3-0.6,2.5,1.8,3.1,4.1c0.7,2.8,1.6,5.6,2.8,8.2c0.9,2,3,4.1,1.4,6.2c-2.2,2.8-7.5,5-10.6,7c-0.6,0.4-0.8,1.2-1,1.9
		c-0.3,1.3,1.2,3.1,2.5,3.5c3.1,1.2,5.9,1.1,9.2,1.3c0.7,0,5-0.4,2.9,1.6c-0.6,0.6-1.6,0.5-2.4,0.3s-1.6-0.6-2.5-0.5
		c-1.1,0.1-1.9,1-2.6,1.8c-0.7,0.8-1.4,1.7-2.5,1.9c-1,0.2-2.3-0.6-2.1-1.6c0.2-0.7,1-1.4,0.7-2.1c-0.3-0.6-1.1-0.5-1.7-0.3
		c-1.5,0.4-3.1,0.8-4.3,1.8c-1.7,1.5-2.1,3.2,0.1,4.2c1,0.5,2.2,0,3.3,0.3c1.4,0.3,2.7,1.2,4,1.9c1.8,1,4,1.8,5.9,0.9
		c-0.1,0.6-1.7,1.3-2.3,1.3c-6-0.2,0.7,7.4,3.9,7.9c1.2,0.2,2.6,0.2,3.2,1.2C73.5,86.6,73.1,87.5,72.5,88.2z M86.4,50.4
		c-0.1,1.1,0.3,2.5,0.4,3.6c0,0.8,0.2,2.3-0.2,3c-1,1.6-1.8,0.7-2.1,0.2c-0.2-0.3-0.6-0.7-0.8-0.9c-0.2-0.3-0.6-1.1-0.7-1.2
		c-1.1-2.6-3.3-4-3.8-6.8c-0.2-1.4,0.1-3-0.8-4.2c-0.3-0.4-0.8-0.7-1.2-1.2c-0.4-0.4-0.6-1.1-0.3-1.5c0.3-0.5,1-0.5,1.5-0.5
		c2.6,0,8.6-1.2,10.3,1C92,45.6,86.6,47.4,86.4,50.4z"/>
	<path class="st2" d="M43.9-6.1c10.4,0,20.8,0,31.2,0c10.1,0,20.4-0.6,30.5,0.3c1.6,2.7,3.3,5.4,3.8,8.5c0.5,3.2-0.2,6.4-0.7,9.5
		c-1.1,6.7-1.2,13.6-0.2,20.3c0.2,1.6,0.5,3.3,1.1,4.8c1.1,2.7,3.2,5.2,2.7,8.1c-0.8,4.7-7.9,6.4-8.1,11.1c-0.1,2.6,1.9,4.8,1.9,7.4
		c-0.1,2.5-2.2,4.5-3.9,6.3c-6,6-10,13.6-14,21.1c-3.5,6.6-7,13.3-9.6,20.3c-0.3,0.7-1.1,2.3-1.8,2.6c-2.2,0.9-0.8-1.2-0.6-2.5
		c0.1-0.6-0.1-1.4-0.7-1.7c-0.7-0.3-1.5,0.2-2.2,0.4c-3.6,1.1-6-4.6-7.6-6.9c-1.7-2.5-3.8-5.2-6.8-5.2c-0.9,0-1.9,0.3-2.2,1.1
		c-0.2,0.4-0.2,1-0.1,1.5c0.5,5,2.2,9.9,5.1,14.1c0.9,1.3,5.2,6.1,1,6.1c-0.8,0-3.9-3.8-4.4-1.3c-0.2,0.9,0.9,1.7,0.1,2.7
		c-0.6,0.8-1.9,0.8-2.6,0c-1.2-1.2-0.8-3-0.5-4.6c1.3-6.8,0.2-14.1-3.2-20.2c-0.6-1-1.1-2.5-0.2-3.2c0.9-0.8,2.2,0.1,3.2,0.7
		c3.8,2.2,8.7,0.6,12.8-1.1c4.3-1.8,8.7-3.6,13-5.4c1.1-0.5,2.2-0.9,3.1-1.8c0.8-0.9,1.2-2.2,0.6-3.3c-0.9-1.5-4.2-0.6-5.5-0.5
		c-3,0.1-5.9-0.4-8.7-1.5c-0.2-1.7,1.4-3,3-3.6c1.9-0.7,4-0.8,5.5-2.3c0.7-0.7,1.1-1.8,0.8-2.7c-0.4-1.5-2-1.8-3.2-1.5
		c-1,0.2-1.8,0.7-2.7,1.1c-1.9,0.8-4.1,0.9-6.1,0.4c-0.7-0.2-1.4-0.5-1.7-1.2c-0.4-1,0.7-2.1,1.8-2.3c1.1-0.2,2.2,0.2,3.4,0.2
		c1.7,0,3.2-0.7,4.7-1.4c1-0.5,2.1-1,2.6-2c0.8-1.5,0.7-5.9-1.4-4.5c-3.3,2.3-9-1-11.7,0c-1.4,0.5-3.2-2.4-2.2-4
		c0.5-0.9,1.5-1.3,2.5-1.1c3.6,0.4,5.8-3.1,6.7-6.3c0.8-2.8-4.6-13.3-5.1-16.5c-0.2-1.7,0.5-3.3-1.2-3.8c-5.4-1.7-11.2,10.1-13,6.8
		c-0.7-1.3-2.7-2.3-4.1-2.3c-4.5-0.1-4.2,3.3-8.3,1.9c-2.3-0.8-2.8-6.3-4.3-4.1c-1.5,2.2-3,5-4.6,12.1c-1.4,6.3-0.7,13-2.9,19
		c-0.5,1.4-1.7,2.9-3.1,2.5c-0.7-0.2-1.3-0.9-2-0.8c-0.9,0.1-1,0.9-1,1.8c0,2.5,2,4.9,4.6,4.8c1.6-0.1,2.5-0.4,3.3-1.8
		c0.5-0.8,0.5-1.5,1.1-1.4c0.5,0.1,0.5,0.9,0.9,2.2c1.9,6,5.3,10.3,10.5,15.6c1,1,5.6,4.4,4.8,5.8c-0.7,1.3-5.7,0.1-7.1-0.4
		c-4.2-1.4-5.9-5.1-10.1-5.1C24,87.2,21.3,81.1,19.2,76c-1.1-2.8-1.7-5.9-1.8-8.9c-0.1-3.9-0.4-8.3,1.3-11.9c1.5-3.1,8.1-7,5.7-10.6
		c-1.1-1.6-6.3-3.3-4.2-5.8c0.6-0.7,1.3-1.2,1.9-1.9c1-1.2,1.4-3.1,1-4.5c-0.3-0.9-1.3-1.7-2.1-2.4c-1-0.8-1.9-1.5-1.9-2.9
		c0-1.2,0-3.1,0-4.3c0-8.4,5.9-12.9,11.8-17.6c1.2-0.9,9.3-4.2,9-5.6C40.8-0.9,44.2-5,43.9-6.1z M92.8,43.8c0-1.9-0.2-3.8-1-5.6
		c-0.5-1-1.2-2-2.3-2.1c-2.2-0.3-4.2,2.9-6.3,1.9c-0.3-0.1-0.5-0.4-0.8-0.5c-1.7-0.7-3.5,2.1-5.1,1.2C76.1,38,76.8,36,76,34.8
		c-0.6-1.1-2.4-1.2-3.3-0.4s-1.3,2.2-1,3.5c0.2,1.3,0.9,2.4,1.5,3.5c1.9,3.2,3.8,6.4,5.6,9.6c0.8,1.4,1.7,2.9,2.7,4.1
		c0.5,0.6,1,1.1,1.3,1.8c0.9,1.5,2.8,11.6,6.2,6.2c0.4-0.7,0.7-1.4,0.8-2.2c0.9-4.1,1.6-8.2,2.3-12.3C92.5,47.1,92.7,45.4,92.8,43.8
		z M80.9,28.4c-1.1,0-1.1,0-2,0.7c-0.4,0.3-0.5,0.9-0.2,1.3c0.4,0.7,1.1,1.4,1.9,1.4c0.3,0,0.9,0.2,1.2,0.4c0.7,1.1,1.1,0,1.5-0.8
		c0.4-1.1-0.7-1.9-0.8-3C82,28.3,81.5,28.3,80.9,28.4z M52.6,40.4c1.7-1.2-2.9-3.2-3.2-3.2c-5.4,0.5-5.3,4.9-0.6,4.9
		C50.4,43,51.3,41.3,52.6,40.4z"/>
</g>
</svg>
