<?xml version="1.0" encoding="utf-8"?>
<!DOCTYPE svg PUBLIC "-//W3C//DTD SVG 1.1//EN" "http://www.w3.org/Graphics/SVG/1.1/DTD/svg11.dtd" [
	<!ENTITY st0 "fill:#FFFDEC;">
	<!ENTITY st1 "clip-path:url(#SVGID_2_);fill:#C3C875;">
	<!ENTITY st2 "clip-path:url(#SVGID_4_);fill:#777777;">
	<!ENTITY st3 "fill:#777777;">
]>
<svg version="1.1" xmlns="http://www.w3.org/2000/svg" xmlns:xlink="http://www.w3.org/1999/xlink" x="0px"
	 y="0px" viewBox="0 0 169.8242 107.2457">
<g>
	<g>
		<path style="&st0;" d="M51.4985,8.2877c0-2.75,2.25-5,5-5h56.8418c2.75,0,5,2.25,5,5v56.8418c0,2.75-2.25,5-5,5H56.4985
			c-2.75,0-5-2.25-5-5V8.2877z"/>
	</g>
	<g>
		<defs>
			<rect id="SVGID_1_" x="51.4985" y="3.2877" width="66.8418" height="66.8418"/>
		</defs>
		<clipPath id="SVGID_2_">
			<use xlink:href="#SVGID_1_"  style="overflow:visible;"/>
		</clipPath>
		<path style="&st1;" d="M116.5126,40.5207c-0.0522-0.2089-0.1044-0.3655-0.2611-0.5222c-0.4178-0.5744-1.0966-0.8355-1.7755-0.9922
			c-0.6789-0.2089-1.3577-0.3655-1.9321-0.7833c-0.7833-0.6266-1.0444-1.671-1.5144-2.611
			c-0.5744-1.2011-2.141-1.3577-2.5066-2.3499c-0.4178-1.0966,1.0444-2.5066,1.9844-2.7155
			c0.5744-0.1567,1.3577-0.2089,1.5144-0.7833c0.1044-0.3655-0.1567-0.7833-0.1567-1.2011
			c-0.0522-1.2533,1.9321-1.671,2.0366-2.9243c0.1044-0.9922-1.0966-1.5666-1.4099-2.5066
			c-0.3133-0.8355,0.1567-1.7755,0.3655-2.6632c0.6266-2.3499-0.4178-4.752-1.3055-6.9975
			c-1.3055-3.2899-0.7311-6.0053-0.7311-9.3474c0-0.7311-0.6266-0.94-0.1044-1.671c0.3133-0.4178,0.6789-0.8355,0.94-1.3055
			c0.6789-1.2011,4.021,0.4178,4.1254-1.0966c-2.9765,0-5.9531,0-8.9296,0c-10.8096,0-21.6191,0-32.4809,0
			c0.1044,0.47-0.9922,1.9321-1.671,2.611c0.7311-0.7311,1.7755-2.1932,1.671-2.611c-0.94,0-1.8799,0-2.8721,0
			c0,0.1044,0,0.2089-0.0522,0.2611c-1.6188,0.8877-3.4987,0.0522-5.1698,0.94c-1.7233,0.94-3.081,2.1932-3.3421,4.2298
			c-0.0522,0.47-0.1044,1.0444-0.47,1.3577c-0.3133,0.2611-0.7311,0.2611-1.1488,0.3655c-1.9844,0.4178-2.8199,2.8721-2.9243,4.9087
			c-0.1044,2.0366,0.0522,4.3343-1.2533,5.9009c-0.5222,0.6266-1.2533,1.0966-1.8799,1.6188
			c-0.6266,0.5222-1.2011,1.2011-1.3055,2.0366c-0.1567,1.7233,3.081,2.4543,1.6188,4.3865
			c-1.9844,2.611-1.5144,5.4309-0.5222,8.4597c1.2533,3.7599,2.8199,7.4675,5.222,10.6007
			c2.4021,3.1332,4.9087,7.1019,10.6007,6.632c1.6188-0.1567,2.2977,0.2611,3.7598,0.8877c3.1854,1.3577,3.081,5.0654,2.1933,7.8852
			c-1.0444,3.4465-1.9322,6.5797-0.7833,10.1829c0.3133,0.9922,0.7833,1.9844,1.671,2.5588
			c0.8355,0.5744,2.1932,0.5744,2.8199-0.2611c0.8355-1.0444,2.2455-1.4099,3.551-1.5144s2.6632-0.0522,3.9165-0.4178
			c2.0366-0.6266,3.6032-2.3499,4.5432-4.2298c0.9922-2.0366,1.4622-4.4909,1.7233-6.7364
			c0.2089-1.9844,0.5222-2.9243,1.8277-4.5432c3.2899-4.2821,5.1698-9.5563,8.303-13.9428
			c0.3655-0.5222,0.8877-1.0966,1.5666-1.0444c0.9922,0.1044,1.2011,1.4622,2.0366,2.0366
			c0.7833,0.5222,1.8799,0.1044,2.7154-0.4178c0.8355-0.5222,1.7233-1.1488,2.6632-0.94c0.94,0.1567,1.8277,1.0966,2.6632,0.6789
			C116.4604,41.6173,116.6171,41.0429,116.5126,40.5207z M89.3581,49.3459c-0.2089,0.2089-0.47,0.4178-0.7311,0.5744
			c-1.5144,0.7311-3.3943,0.6266-4.752-0.3133c-0.8355-0.5222-1.7755-1.3577-2.611-0.8877
			c-0.4178,0.2089-0.6266,0.6789-0.9922,0.9922c-0.6789,0.5744-1.8277,0.2611-2.4021-0.4178
			c-0.5744-0.6789-0.8355-1.5666-1.0966-2.4543s-0.5222-1.7755-1.2011-2.3499c-1.4099-1.3055-4.1776-0.8877-4.9087-2.6632
			c-0.3133-0.7833-0.0522-1.7233,0.1044-2.5588c0.3133-2.1932-0.4178-4.3865-1.0444-6.4753
			c-0.6789-2.2977-0.6789-4.2821-0.6789-6.632c0.5222-1.5144,2.1932-2.7154,3.8121-2.0888
			c0.7833,0.3133,1.3577,0.8877,2.0366,1.4099c0.6266,0.5222,1.41,0.9922,2.2455,0.94c0.7833-0.0522,1.7233-0.3133,2.2455-0.8877
			c0.7311-0.7833,1.2011-1.6188,1.8799-2.4543c0.6266-0.8355,1.5144-2.4021,2.611-2.6632c1.5666-0.3133,1.3055,0.94,1.6188,2.141
			c0.3655,1.4622,0.8355,2.9243,1.4622,4.2821c0.47,1.0444,1.5666,2.141,0.7311,3.2376c-1.1488,1.4622-3.9165,2.611-5.5353,3.6554
			c-0.3133,0.2089-0.4178,0.6266-0.5222,0.9922c-0.1567,0.6789,0.6266,1.6188,1.3055,1.8277
			c1.6188,0.6266,3.081,0.5744,4.8043,0.6789c0.3655,0,2.611-0.2089,1.5144,0.8355c-0.3133,0.3133-0.8355,0.2611-1.2533,0.1567
			c-0.4178-0.1044-0.8355-0.3133-1.3055-0.2611c-0.5744,0.0522-0.9922,0.5222-1.3577,0.94s-0.7311,0.8877-1.3055,0.9922
			c-0.5222,0.1044-1.2011-0.3133-1.0966-0.8355c0.1044-0.3655,0.5222-0.7311,0.3655-1.0966
			c-0.1567-0.3133-0.5744-0.2611-0.8877-0.1567c-0.7833,0.2089-1.6188,0.4178-2.2455,0.94
			c-0.8877,0.7833-1.0966,1.671,0.0522,2.1932c0.5222,0.2611,1.1488,0,1.7233,0.1567c0.7311,0.1567,1.4099,0.6266,2.0888,0.9922
			c0.94,0.5222,2.0888,0.94,3.081,0.47c-0.0522,0.3133-0.8877,0.6789-1.2011,0.6789c-3.1332-0.1044,0.3655,3.8643,2.0366,4.1254
			c0.6266,0.1044,1.3577,0.1044,1.671,0.6266C89.8803,48.5104,89.6715,48.9804,89.3581,49.3459z M96.6167,29.6067
			c-0.0522,0.5744,0.1567,1.3055,0.2089,1.8799c0,0.4178,0.1044,1.2011-0.1044,1.5666c-0.5222,0.8355-0.94,0.3655-1.0966,0.1044
			c-0.1044-0.1567-0.3133-0.3655-0.4178-0.47c-0.1044-0.1567-0.3133-0.5744-0.3655-0.6266
			c-0.5744-1.3577-1.7233-2.0888-1.9844-3.551c-0.1044-0.7311,0.0522-1.5666-0.4178-2.1932
			c-0.1567-0.2089-0.4178-0.3655-0.6266-0.6266c-0.2089-0.2089-0.3133-0.5744-0.1567-0.7833
			c0.1567-0.2611,0.5222-0.2611,0.7833-0.2611c1.3577,0,4.4909-0.6266,5.3787,0.5222
			C99.5411,27.1001,96.7212,28.0401,96.6167,29.6067z"/>
	</g>
	<g>
		<defs>
			<rect id="SVGID_3_" x="51.4985" y="3.2877" width="66.8418" height="66.8418"/>
		</defs>
		<clipPath id="SVGID_4_">
			<use xlink:href="#SVGID_3_"  style="overflow:visible;"/>
		</clipPath>
		<path style="&st2;" d="M74.4232,0.1023c5.4309,0,10.8618,0,16.2927,0c5.2742,0,10.6529-0.3133,15.9271,0.1567
			c0.8355,1.4099,1.7233,2.8199,1.9844,4.4387c0.2611,1.671-0.1044,3.3421-0.3655,4.9609
			c-0.5744,3.4988-0.6266,7.1019-0.1044,10.6007c0.1044,0.8355,0.2611,1.7233,0.5744,2.5066
			c0.5744,1.4099,1.671,2.7154,1.4099,4.2298c-0.4178,2.4543-4.1254,3.3421-4.2298,5.7964
			c-0.0522,1.3577,0.9922,2.5066,0.9922,3.8643c-0.0522,1.3055-1.1488,2.3499-2.0366,3.2899
			c-3.1332,3.1332-5.222,7.1019-7.3108,11.0184c-1.8277,3.4465-3.6554,6.9453-5.0131,10.6007
			c-0.1567,0.3655-0.5744,1.2011-0.94,1.3577c-1.1488,0.47-0.4178-0.6266-0.3133-1.3055c0.0522-0.3133-0.0522-0.7311-0.3655-0.8877
			c-0.3655-0.1567-0.7833,0.1044-1.1488,0.2089c-1.8799,0.5744-3.1332-2.4021-3.9687-3.6032
			c-0.8877-1.3055-1.9844-2.7154-3.551-2.7154c-0.47,0-0.9922,0.1567-1.1488,0.5744c-0.1044,0.2089-0.1044,0.5222-0.0522,0.7833
			c0.2611,2.611,1.1488,5.1698,2.6632,7.363c0.47,0.6789,2.7154,3.1854,0.5222,3.1854c-0.4178,0-2.0366-1.9844-2.2977-0.6789
			c-0.1044,0.47,0.47,0.8877,0.0522,1.4099c-0.3133,0.4178-0.9922,0.4178-1.3577,0c-0.6266-0.6266-0.4178-1.5666-0.2611-2.4021
			c0.6789-3.551,0.1044-7.363-1.671-10.5485c-0.3133-0.5222-0.5744-1.3055-0.1044-1.671c0.47-0.4178,1.1488,0.0522,1.671,0.3655
			c1.9844,1.1488,4.5432,0.3133,6.6842-0.5744c2.2455-0.94,4.5432-1.8799,6.7886-2.8199c0.5744-0.2611,1.1488-0.47,1.6188-0.94
			c0.4178-0.47,0.6266-1.1488,0.3133-1.7233c-0.47-0.7833-2.1932-0.3133-2.8721-0.2611c-1.5666,0.0522-3.081-0.2089-4.5432-0.7833
			c-0.1044-0.8877,0.7311-1.5666,1.5666-1.8799c0.9922-0.3655,2.0888-0.4178,2.8721-1.2011c0.3655-0.3655,0.5744-0.94,0.4178-1.4099
			c-0.2089-0.7833-1.0444-0.94-1.671-0.7833c-0.5222,0.1044-0.94,0.3655-1.4099,0.5744c-0.9922,0.4178-2.141,0.47-3.1854,0.2089
			c-0.3655-0.1044-0.7311-0.2611-0.8877-0.6266c-0.2089-0.5222,0.3655-1.0966,0.94-1.2011
			c0.5744-0.1044,1.1488,0.1044,1.7755,0.1044c0.8877,0,1.671-0.3655,2.4543-0.7311c0.5222-0.2611,1.0966-0.5222,1.3577-1.0444
			c0.4178-0.7833,0.3655-3.081-0.7311-2.3499c-1.7233,1.2011-4.6998-0.5222-6.1098,0c-0.7311,0.2611-1.6711-1.2533-1.1488-2.0888
			c0.2611-0.47,0.7833-0.6789,1.3055-0.5744c1.8799,0.2089,3.0288-1.6188,3.4987-3.2899c0.4178-1.4622-2.4021-6.9453-2.6632-8.6163
			c-0.1044-0.8877,0.2611-1.7233-0.6266-1.9844c-2.8199-0.8877-5.8487,5.2742-6.7886,3.551c-0.3655-0.6789-1.41-1.2011-2.141-1.2011
			c-2.3499-0.0522-2.1932,1.7233-4.3343,0.9922c-1.2011-0.4178-1.4622-3.2899-2.2455-2.141s-1.5666,2.611-2.4021,6.3186
			c-0.7311,3.2899-0.3655,6.7886-1.5144,9.9218c-0.2611,0.7311-0.8877,1.5144-1.6188,1.3055
			c-0.3655-0.1044-0.6789-0.47-1.0444-0.4178c-0.47,0.0522-0.5222,0.47-0.5222,0.94c0,1.3055,1.0444,2.5588,2.4021,2.5066
			c0.8355-0.0522,1.3055-0.2089,1.7233-0.94c0.2611-0.4178,0.2611-0.7833,0.5744-0.7311c0.2611,0.0522,0.2611,0.47,0.47,1.1488
			c0.9922,3.1332,2.7677,5.3787,5.4831,8.1463c0.5222,0.5222,2.9243,2.2977,2.5066,3.0288
			c-0.3655,0.6789-2.9765,0.0522-3.7076-0.2089c-2.1933-0.7311-3.081-2.6632-5.2742-2.6632
			c-3.551,0.2611-4.9609-2.9243-6.0576-5.5876c-0.5744-1.4622-0.8877-3.081-0.94-4.6476c-0.0522-2.0366-0.2089-4.3343,0.6789-6.2142
			c0.7833-1.6188,4.2298-3.6554,2.9766-5.5353c-0.5744-0.8355-3.2899-1.7233-2.1932-3.0288
			c0.3133-0.3655,0.6789-0.6266,0.9922-0.9922c0.5222-0.6266,0.7311-1.6188,0.5222-2.3499c-0.1567-0.47-0.6789-0.8877-1.0966-1.2533
			c-0.5222-0.4178-0.9922-0.7833-0.9922-1.5144c0-0.6266,0-1.6188,0-2.2455c0-4.3865,3.081-6.7364,6.162-9.1907
			c0.6266-0.47,4.8565-2.1932,4.6998-2.9243C72.8044,2.8178,74.5798,0.6767,74.4232,0.1023z M99.9588,26.1602
			c0-0.9922-0.1044-1.9844-0.5222-2.9243c-0.2611-0.5222-0.6266-1.0444-1.2011-1.0966c-1.1488-0.1567-2.1932,1.5144-3.2899,0.9922
			c-0.1567-0.0522-0.2611-0.2089-0.4178-0.2611c-0.8877-0.3655-1.8277,1.0966-2.6632,0.6266
			c-0.6266-0.3655-0.2611-1.4099-0.6789-2.0366c-0.3133-0.5744-1.2533-0.6266-1.7233-0.2089
			c-0.47,0.4178-0.6789,1.1488-0.5222,1.8277c0.1044,0.6789,0.47,1.2533,0.7833,1.8277c0.9922,1.671,1.9844,3.3421,2.9243,5.0131
			c0.4178,0.7311,0.8877,1.5144,1.4099,2.141c0.2611,0.3133,0.5222,0.5744,0.6789,0.94c0.47,0.7833,1.4622,6.0575,3.2376,3.2377
			c0.2089-0.3655,0.3655-0.7311,0.4178-1.1488c0.47-2.141,0.8355-4.2821,1.2011-6.4231
			C99.8022,27.8834,99.9066,26.9957,99.9588,26.1602z M93.7446,18.1183c-0.5744,0-0.5744,0-1.0444,0.3655
			c-0.2089,0.1567-0.2611,0.47-0.1044,0.6789c0.2089,0.3655,0.5744,0.7311,0.9922,0.7311c0.1567,0,0.47,0.1044,0.6266,0.2089
			c0.3655,0.5744,0.5744,0,0.7833-0.4178c0.2089-0.5744-0.3655-0.9922-0.4178-1.5666C94.3191,18.066,94.058,18.066,93.7446,18.1183z
			 M78.9663,24.3847c0.8877-0.6266-1.5144-1.671-1.6711-1.671c-2.8199,0.2611-2.7677,2.5588-0.3133,2.5588
			C77.8175,25.7424,78.2875,24.8547,78.9663,24.3847z"/>
	</g>
</g>
<g>
	<path style="&st3;" d="M2.1924,95.6129l-1.3916,11.3604H0l1.3926-11.3604H2.1924z"/>
	<path style="&st3;" d="M15.377,95.6129l-1.4238,11.6328h-0.0322l-7.5361-9.9521l-1.1846,9.6797h-0.752L5.873,95.3737h0.0312
		l7.5361,9.9834l1.1846-9.7441H15.377z"/>
	<path style="&st3;" d="M25.5361,95.6129l-0.0957,0.7686h-3.3281l-1.2959,10.5918h-0.7998l1.2959-10.5918H18l0.0967-0.7686H25.5361z
		"/>
	<path style="&st3;" d="M32.752,103.2135h-4.9922l-1.9678,3.7598h-0.7842l6.2559-11.8564h0.0645l3.3438,11.8564H33.792
		L32.752,103.2135z M32.5439,102.4772l-1.5195-5.4717l-2.8643,5.4717H32.5439z"/>
	<path style="&st3;" d="M44.2246,106.9411c-0.5869,0.1387-1.1523,0.208-1.6963,0.208c-1.1738,0-2.1924-0.2402-3.0557-0.7197
		c-0.8643-0.4805-1.5176-1.1357-1.96-1.9678c-0.4434-0.832-0.6436-1.7549-0.6006-2.7686c0.0537-1.0127,0.3203-1.9863,0.7998-2.9199
		c0.4805-0.9326,1.1787-1.6982,2.0967-2.2959c0.917-0.5967,2.0205-0.8955,3.3115-0.8955c0.6406,0,1.2451,0.0908,1.8164,0.2715
		c0.5703,0.1816,1.085,0.4316,1.5439,0.752l-0.3682,0.6885c-0.3945-0.2881-0.8643-0.5146-1.4082-0.6807
		c-0.5439-0.165-1.083-0.248-1.6162-0.248c-1.2051,0-2.21,0.2803-3.0156,0.8408c-0.8057,0.5596-1.4004,1.2588-1.7842,2.0957
		s-0.5762,1.6777-0.5762,2.5195c0,0.8223,0.1787,1.5684,0.5361,2.2402s0.875,1.2139,1.5518,1.624
		c0.6777,0.4111,1.4697,0.6426,2.376,0.6963c0.459,0.0215,0.9395-0.0078,1.4404-0.0879s0.9336-0.2002,1.2959-0.3604l0.4004-3.3115
		h-2.5762l0.0957-0.7363h3.376l-0.5596,4.5283C45.2852,106.6266,44.8105,106.8024,44.2246,106.9411z"/>
	<path style="&st3;" d="M51.04,95.6129l-1.2959,10.6084h6.2402l-0.0957,0.752h-7.0088l1.3926-11.3604H51.04z"/>
	<path style="&st3;" d="M60.3203,95.6129l-1.3916,11.3604h-0.8008l1.3926-11.3604H60.3203z"/>
	<path style="&st3;" d="M65.2803,106.4215c-0.832-0.4424-1.4932-1.0693-1.9834-1.8799c-0.4912-0.8105-0.7363-1.75-0.7363-2.8164
		c0-0.9814,0.2422-1.9521,0.7285-2.9121c0.4844-0.96,1.1963-1.752,2.1357-2.376c0.9385-0.624,2.042-0.9355,3.3115-0.9355
		c0.9922,0,1.9043,0.2207,2.7363,0.6641c0.832,0.4424,1.4932,1.0713,1.9834,1.8877c0.4912,0.8164,0.7363,1.7578,0.7363,2.8242
		c0,0.9814-0.2432,1.9492-0.7285,2.9033c-0.4854,0.9551-1.1973,1.7441-2.1357,2.3682s-2.043,0.9365-3.3115,0.9365
		C67.0244,107.0856,66.1123,106.8639,65.2803,106.4215z M70.9043,105.5172c0.8164-0.5439,1.4346-1.2344,1.8564-2.0723
		c0.4209-0.8369,0.6318-1.6826,0.6318-2.5361c0-0.832-0.2061-1.6045-0.6162-2.3193c-0.4111-0.7148-0.9736-1.2822-1.6885-1.7041
		c-0.7139-0.4209-1.5088-0.6318-2.3838-0.6318c-1.0986,0-2.0527,0.2715-2.8633,0.8154s-1.4268,1.2354-1.8486,2.0723
		c-0.4209,0.8379-0.6318,1.6885-0.6318,2.5518c0,0.832,0.2031,1.6025,0.6084,2.3125c0.4053,0.709,0.9619,1.2744,1.6719,1.6953
		c0.709,0.4219,1.5068,0.6328,2.3916,0.6328C69.1309,106.3336,70.0879,106.0612,70.9043,105.5172z"/>
	<path style="&st3;" d="M86.4961,96.5416c-0.4912-0.1602-0.9658-0.2461-1.4238-0.2568c-0.6191,0-1.1182,0.1152-1.4961,0.3447
		c-0.3789,0.2295-0.6484,0.501-0.8086,0.8154c-0.1592,0.3154-0.2393,0.6113-0.2393,0.8887c0,0.3408,0.1094,0.6455,0.3281,0.9121
		c0.2178,0.2666,0.4873,0.4951,0.8076,0.6875s0.752,0.416,1.2959,0.6719c0.5654,0.2559,1.0342,0.502,1.4082,0.7363
		c0.373,0.2344,0.6855,0.5439,0.9355,0.9277c0.251,0.3838,0.376,0.8535,0.376,1.4082c0,0.5117-0.1309,1.0322-0.3916,1.5596
		c-0.2617,0.5283-0.6699,0.9688-1.2236,1.3203c-0.5557,0.3516-1.248,0.5283-2.0801,0.5283c-0.7793,0-1.4805-0.1338-2.1045-0.4004
		s-1.1543-0.5967-1.5918-0.9922l0.4316-0.6074c0.3525,0.3516,0.8271,0.6553,1.4238,0.9121
		c0.5977,0.2559,1.2109,0.3838,1.8408,0.3838c0.5967,0,1.1143-0.1279,1.5518-0.3838c0.4375-0.2568,0.7676-0.5869,0.9922-0.9922
		c0.2236-0.4053,0.3359-0.8271,0.3359-1.2646c0-0.6074-0.2109-1.0957-0.6318-1.4639c-0.4219-0.3682-1.0215-0.7227-1.8008-1.0635
		c-0.5654-0.2559-1.0312-0.4961-1.3994-0.7207c-0.3682-0.2236-0.6777-0.5039-0.9287-0.8398c-0.25-0.3359-0.376-0.7334-0.376-1.1914
		c0-0.5762,0.1465-1.0801,0.4404-1.5127c0.293-0.4316,0.6934-0.7646,1.2002-1c0.5059-0.2344,1.0693-0.3516,1.6875-0.3516
		c0.5547,0.0107,1.1064,0.1016,1.6562,0.2725c0.5498,0.1699,1.043,0.3887,1.4805,0.6553l-0.3848,0.5762
		C87.4238,96.8883,86.9863,96.7008,86.4961,96.5416z"/>
	<path style="&st3;" d="M92.0957,95.6129l-1.3926,11.3604h-0.7998l1.3926-11.3604H92.0957z"/>
	<path style="&st3;" d="M106.6719,95.3571l-1.4404,11.6162h-0.7676l1.1357-9.3281l-5.4717,6.5762h-0.0322l-3.8398-6.4805
		l-1.1357,9.2324h-0.7686l1.4404-11.6162h0.0156l4.4639,7.6641l6.3838-7.6641H106.6719z"/>
	<path style="&st3;" d="M110.1436,103.6618c0,0.8311,0.251,1.4873,0.752,1.9678c0.501,0.4795,1.1631,0.7197,1.9844,0.7197
		c0.9707,0,1.7676-0.2881,2.3916-0.8643s0.9951-1.3594,1.1123-2.3516l0.9121-7.5205h0.7998l-0.9121,7.5684
		c-0.1602,1.2373-0.6299,2.2002-1.4082,2.8877c-0.7783,0.6885-1.7754,1.0322-2.9922,1.0322c-1.0342,0-1.8691-0.293-2.5039-0.8799
		s-0.9512-1.3975-0.9512-2.4316c0-0.2666,0.0098-0.4697,0.0312-0.6084l0.9287-7.5684h0.7998l-0.9121,7.5205
		C110.1543,103.3893,110.1436,103.5651,110.1436,103.6618z"/>
	<path style="&st3;" d="M122.5273,95.6129l-1.2959,10.6084h6.2402l-0.0967,0.752h-7.0078l1.3926-11.3604H122.5273z"/>
	<path style="&st3;" d="M136.3516,103.2135h-4.9922l-1.9678,3.7598h-0.7842l6.2559-11.8564h0.0645l3.3438,11.8564h-0.8799
		L136.3516,103.2135z M136.1436,102.4772l-1.5205-5.4717l-2.8633,5.4717H136.1436z"/>
	<path style="&st3;" d="M147.9678,95.6129l-0.0957,0.7686h-3.3281l-1.2959,10.5918h-0.8008l1.2959-10.5918h-3.3115l0.0957-0.7686
		H147.9678z"/>
	<path style="&st3;" d="M151.4238,106.4215c-0.832-0.4424-1.4932-1.0693-1.9844-1.8799c-0.4902-0.8105-0.7354-1.75-0.7354-2.8164
		c0-0.9814,0.2422-1.9521,0.7275-2.9121s1.1973-1.752,2.1367-2.376c0.9385-0.624,2.042-0.9355,3.3115-0.9355
		c0.9922,0,1.9043,0.2207,2.7363,0.6641c0.832,0.4424,1.4932,1.0713,1.9834,1.8877c0.4912,0.8164,0.7363,1.7578,0.7363,2.8242
		c0,0.9814-0.2432,1.9492-0.7285,2.9033c-0.4854,0.9551-1.1973,1.7441-2.1357,2.3682s-2.043,0.9365-3.3115,0.9365
		C153.168,107.0856,152.2559,106.8639,151.4238,106.4215z M157.0479,105.5172c0.8164-0.5439,1.4346-1.2344,1.8564-2.0723
		c0.4209-0.8369,0.6318-1.6826,0.6318-2.5361c0-0.832-0.2061-1.6045-0.6162-2.3193c-0.4111-0.7148-0.9736-1.2822-1.6885-1.7041
		c-0.7139-0.4209-1.5088-0.6318-2.3838-0.6318c-1.0986,0-2.0537,0.2715-2.8633,0.8154c-0.8115,0.5439-1.4268,1.2354-1.8486,2.0723
		c-0.4209,0.8379-0.6318,1.6885-0.6318,2.5518c0,0.832,0.2021,1.6025,0.6084,2.3125c0.4053,0.709,0.9619,1.2744,1.6719,1.6953
		c0.709,0.4219,1.5059,0.6328,2.3916,0.6328C155.2744,106.3336,156.2314,106.0612,157.0479,105.5172z"/>
	<path style="&st3;" d="M168.9121,106.9733l-2.3682-4.832c-0.2461,0.043-0.5391,0.0645-0.8799,0.0645h-1.7441l-0.5918,4.7676
		h-0.7686l1.3926-11.3604h2.5918c0.5547,0,1.0742,0.1016,1.5596,0.3047c0.4854,0.2021,0.8799,0.5088,1.1846,0.9199
		c0.3037,0.4102,0.4561,0.9248,0.4561,1.5439c0,0.085-0.0107,0.2344-0.0322,0.4482c-0.0859,0.6934-0.3232,1.3193-0.7119,1.8799
		c-0.3896,0.5596-0.9365,0.9678-1.6406,1.2236l2.4648,5.04H168.9121z M165.7275,101.4538c1.0352,0,1.8027-0.2568,2.3047-0.7686
		c0.501-0.5117,0.7939-1.1201,0.8799-1.8242c0.0098-0.0635,0.0156-0.165,0.0156-0.3037c0-0.6289-0.2139-1.1523-0.6396-1.5684
		c-0.4268-0.416-1.0088-0.624-1.7441-0.624h-1.9199l-0.6084,5.0889H165.7275z"/>
</g>
</svg>
