<?xml version="1.0" encoding="UTF-8"?>
<svg enable-background="new 0 0 169.824 107.246" version="1.1" viewBox="0 0 169.82 107.25" xml:space="preserve" xmlns="http://www.w3.org/2000/svg" xmlns:xlink="http://www.w3.org/1999/xlink">
		<path d="m51.499 8.288c0-2.75 2.25-5 5-5h56.842c2.75 0 5 2.25 5 5v56.842c0 2.75-2.25 5-5 5h-56.842c-2.75 0-5-2.25-5-5v-56.842z" fill="#FFFDEC"/>
			<defs>
				<rect id="d" x="51.499" y="3.288" width="66.842" height="66.842"/>
			</defs>
			<clipPath id="c">
				<use overflow="visible" xlink:href="#d"/>
			</clipPath>
			<path d="m116.51 40.521c-0.052-0.209-0.104-0.366-0.261-0.522-0.418-0.574-1.097-0.835-1.775-0.992-0.679-0.209-1.358-0.366-1.932-0.783-0.783-0.627-1.044-1.671-1.514-2.611-0.574-1.201-2.141-1.358-2.507-2.35-0.418-1.097 1.044-2.507 1.984-2.715 0.574-0.157 1.358-0.209 1.514-0.783 0.104-0.365-0.157-0.783-0.157-1.201-0.052-1.253 1.932-1.671 2.037-2.924 0.104-0.992-1.097-1.567-1.41-2.507-0.313-0.836 0.157-1.775 0.366-2.663 0.627-2.35-0.418-4.752-1.305-6.997-1.305-3.29-0.731-6.005-0.731-9.347 0-0.731-0.627-0.94-0.104-1.671 0.313-0.418 0.679-0.836 0.94-1.306 0.679-1.201 4.021 0.418 4.125-1.097h-8.93-32.481c0.104 0.47-0.992 1.932-1.671 2.611 0.731-0.731 1.775-2.193 1.671-2.611h-2.872c0 0.104 0 0.209-0.052 0.261-1.619 0.888-3.499 0.052-5.17 0.94-1.723 0.94-3.081 2.193-3.342 4.23-0.052 0.47-0.104 1.044-0.47 1.358-0.314 0.259-0.732 0.259-1.15 0.363-1.984 0.418-2.82 2.872-2.924 4.909s0.052 4.334-1.253 5.901c-0.522 0.627-1.253 1.097-1.88 1.619s-1.201 1.201-1.306 2.037c-0.157 1.723 3.081 2.454 1.619 4.386-1.984 2.611-1.514 5.431-0.522 8.46 1.253 3.76 2.82 7.467 5.222 10.601s4.909 7.102 10.601 6.632c1.619-0.157 2.298 0.261 3.76 0.888 3.185 1.358 3.081 5.065 2.193 7.885-1.044 3.446-1.932 6.58-0.783 10.183 0.313 0.992 0.783 1.984 1.671 2.559 0.836 0.574 2.193 0.574 2.82-0.261 0.836-1.044 2.245-1.41 3.551-1.514s2.663-0.052 3.916-0.418c2.037-0.627 3.603-2.35 4.543-4.23 0.992-2.037 1.462-4.491 1.723-6.736 0.209-1.984 0.522-2.924 1.828-4.543 3.29-4.282 5.17-9.556 8.303-13.943 0.366-0.522 0.888-1.097 1.567-1.044 0.992 0.104 1.201 1.462 2.037 2.037 0.783 0.522 1.88 0.104 2.715-0.418s1.723-1.149 2.663-0.94c0.94 0.157 1.828 1.097 2.663 0.679 0.417-0.316 0.574-0.89 0.47-1.412zm-27.155 8.825c-0.209 0.209-0.47 0.418-0.731 0.574-1.514 0.731-3.394 0.627-4.752-0.313-0.836-0.522-1.775-1.358-2.611-0.888-0.418 0.209-0.627 0.679-0.992 0.992-0.679 0.574-1.828 0.261-2.402-0.418s-0.836-1.567-1.097-2.454-0.522-1.776-1.201-2.35c-1.41-1.306-4.178-0.888-4.909-2.663-0.313-0.783-0.052-1.723 0.104-2.559 0.313-2.193-0.418-4.387-1.044-6.475-0.679-2.298-0.679-4.282-0.679-6.632 0.522-1.514 2.193-2.715 3.812-2.089 0.783 0.313 1.358 0.888 2.037 1.41 0.627 0.522 1.41 0.992 2.245 0.94 0.783-0.052 1.723-0.313 2.245-0.888 0.731-0.783 1.201-1.619 1.88-2.454 0.627-0.836 1.514-2.402 2.611-2.663 1.567-0.313 1.305 0.94 1.619 2.141 0.366 1.462 0.836 2.924 1.462 4.282 0.47 1.044 1.567 2.141 0.731 3.238-1.149 1.462-3.916 2.611-5.535 3.655-0.313 0.209-0.418 0.627-0.522 0.992-0.157 0.679 0.627 1.619 1.305 1.828 1.619 0.627 3.081 0.574 4.804 0.679 0.366 0 2.611-0.209 1.514 0.835-0.312 0.314-0.834 0.262-1.252 0.157s-0.836-0.313-1.306-0.261c-0.574 0.052-0.992 0.522-1.358 0.94s-0.731 0.888-1.305 0.992c-0.522 0.104-1.201-0.313-1.097-0.835 0.104-0.366 0.522-0.731 0.366-1.097-0.157-0.313-0.574-0.261-0.888-0.157-0.783 0.209-1.619 0.418-2.245 0.94-0.888 0.783-1.097 1.671 0.052 2.193 0.522 0.261 1.149 0 1.723 0.157 0.731 0.157 1.41 0.627 2.089 0.992 0.94 0.522 2.089 0.94 3.081 0.47-0.052 0.313-0.888 0.679-1.201 0.679-3.133-0.104 0.366 3.864 2.037 4.125 0.627 0.104 1.358 0.104 1.671 0.627 0.261 0.522 0.053 0.992-0.261 1.358zm7.259-19.739c-0.052 0.574 0.157 1.306 0.209 1.88 0 0.418 0.104 1.201-0.104 1.567-0.522 0.835-0.94 0.366-1.097 0.104-0.104-0.157-0.313-0.366-0.418-0.47-0.104-0.157-0.313-0.574-0.366-0.627-0.574-1.358-1.723-2.089-1.984-3.551-0.104-0.731 0.052-1.567-0.418-2.193-0.157-0.209-0.418-0.365-0.627-0.627-0.209-0.209-0.313-0.574-0.157-0.783 0.157-0.261 0.522-0.261 0.783-0.261 1.358 0 4.491-0.627 5.379 0.522 1.724 1.932-1.096 2.872-1.2 4.439z" clip-path="url(#c)" fill="#C3C875"/>
			<defs>
				<rect id="b" x="51.499" y="3.288" width="66.842" height="66.842"/>
			</defs>
			<clipPath id="a">
				<use overflow="visible" xlink:href="#b"/>
			</clipPath>
			<path d="m74.423 0.102h16.293c5.274 0 10.653-0.313 15.927 0.157 0.836 1.41 1.723 2.82 1.984 4.439 0.261 1.671-0.104 3.342-0.366 4.961-0.574 3.499-0.627 7.102-0.104 10.601 0.104 0.836 0.261 1.723 0.574 2.507 0.574 1.41 1.671 2.715 1.41 4.23-0.418 2.454-4.125 3.342-4.23 5.796-0.052 1.358 0.992 2.507 0.992 3.864-0.052 1.306-1.149 2.35-2.037 3.29-3.133 3.133-5.222 7.102-7.311 11.018-1.828 3.446-3.655 6.945-5.013 10.601-0.157 0.366-0.574 1.201-0.94 1.358-1.149 0.47-0.418-0.627-0.313-1.306 0.052-0.313-0.052-0.731-0.366-0.888-0.366-0.157-0.783 0.104-1.149 0.209-1.88 0.574-3.133-2.402-3.969-3.603-0.888-1.306-1.984-2.715-3.551-2.715-0.47 0-0.992 0.157-1.149 0.574-0.104 0.209-0.104 0.522-0.052 0.783 0.261 2.611 1.149 5.17 2.663 7.363 0.47 0.679 2.715 3.185 0.522 3.185-0.418 0-2.037-1.984-2.298-0.679-0.104 0.47 0.47 0.888 0.052 1.41-0.313 0.418-0.992 0.418-1.358 0-0.627-0.627-0.418-1.567-0.261-2.402 0.679-3.551 0.104-7.363-1.671-10.549-0.313-0.522-0.574-1.306-0.104-1.671 0.47-0.418 1.149 0.052 1.671 0.366 1.984 1.149 4.543 0.313 6.684-0.574 2.245-0.94 4.543-1.88 6.789-2.82 0.574-0.261 1.149-0.47 1.619-0.94 0.418-0.47 0.627-1.149 0.313-1.723-0.47-0.783-2.193-0.313-2.872-0.261-1.567 0.052-3.081-0.209-4.543-0.783-0.104-0.888 0.731-1.567 1.567-1.88 0.992-0.366 2.089-0.418 2.872-1.201 0.366-0.366 0.574-0.94 0.418-1.41-0.209-0.783-1.044-0.94-1.671-0.783-0.522 0.104-0.94 0.366-1.41 0.574-0.992 0.418-2.141 0.47-3.185 0.209-0.366-0.104-0.731-0.261-0.888-0.627-0.209-0.522 0.366-1.097 0.94-1.201s1.149 0.104 1.775 0.104c0.888 0 1.671-0.366 2.454-0.731 0.522-0.261 1.097-0.522 1.358-1.044 0.418-0.783 0.366-3.081-0.731-2.35-1.723 1.201-4.7-0.522-6.11 0-0.731 0.261-1.671-1.253-1.149-2.089 0.261-0.47 0.783-0.679 1.305-0.574 1.88 0.209 3.029-1.619 3.499-3.29 0.418-1.462-2.402-6.945-2.663-8.616-0.104-0.888 0.261-1.723-0.627-1.984-2.82-0.888-5.849 5.274-6.789 3.551-0.366-0.679-1.41-1.201-2.141-1.201-2.35-0.052-2.193 1.723-4.334 0.992-1.201-0.418-1.462-3.29-2.245-2.141s-1.567 2.611-2.402 6.319c-0.731 3.29-0.366 6.789-1.514 9.922-0.261 0.731-0.888 1.514-1.619 1.306-0.366-0.104-0.679-0.47-1.044-0.418-0.47 0.052-0.522 0.47-0.522 0.94 0 1.306 1.044 2.559 2.402 2.507 0.836-0.052 1.306-0.209 1.723-0.94 0.261-0.418 0.261-0.783 0.574-0.731 0.261 0.052 0.261 0.47 0.47 1.149 0.992 3.133 2.768 5.379 5.483 8.146 0.522 0.522 2.924 2.298 2.507 3.029-0.366 0.679-2.977 0.052-3.708-0.209-2.193-0.731-3.081-2.663-5.274-2.663-3.551 0.261-4.961-2.924-6.058-5.588-0.574-1.462-0.888-3.081-0.94-4.648-0.052-2.037-0.209-4.334 0.679-6.214 0.783-1.619 4.23-3.655 2.977-5.535-0.574-0.836-3.29-1.723-2.193-3.029 0.313-0.365 0.679-0.627 0.992-0.992 0.522-0.627 0.731-1.619 0.522-2.35-0.157-0.47-0.679-0.888-1.097-1.253-0.522-0.418-0.992-0.783-0.992-1.514v-2.246c0-4.386 3.081-6.736 6.162-9.191 0.627-0.47 4.856-2.193 4.7-2.924 0.472-0.263 2.248-2.404 2.091-2.979zm25.536 26.058c0-0.992-0.104-1.984-0.522-2.924-0.261-0.522-0.627-1.044-1.201-1.097-1.149-0.157-2.193 1.514-3.29 0.992-0.157-0.052-0.261-0.209-0.418-0.261-0.888-0.365-1.828 1.097-2.663 0.627-0.627-0.365-0.261-1.41-0.679-2.037-0.313-0.574-1.253-0.627-1.723-0.209s-0.679 1.149-0.522 1.828c0.104 0.679 0.47 1.253 0.783 1.828 0.992 1.671 1.984 3.342 2.924 5.013 0.418 0.731 0.888 1.514 1.41 2.141 0.261 0.313 0.522 0.574 0.679 0.94 0.47 0.783 1.462 6.057 3.238 3.238 0.209-0.366 0.366-0.731 0.418-1.149 0.47-2.141 0.836-4.282 1.201-6.423 0.208-0.784 0.313-1.671 0.365-2.507zm-6.214-8.042c-0.574 0-0.574 0-1.044 0.365-0.209 0.157-0.261 0.47-0.104 0.679 0.209 0.365 0.574 0.731 0.992 0.731 0.157 0 0.47 0.104 0.627 0.209 0.366 0.574 0.574 0 0.783-0.418 0.209-0.574-0.366-0.992-0.418-1.567-0.262-0.051-0.523-0.051-0.836 1e-3zm-14.779 6.267c0.888-0.627-1.514-1.671-1.671-1.671-2.82 0.261-2.768 2.559-0.313 2.559 0.835 0.469 1.305-0.418 1.984-0.888z" clip-path="url(#a)" fill="#777"/>
<g fill="#777">
	<path d="M2.192,95.613l-1.392,11.36H0l1.393-11.36H2.192z"/>
	<path d="m15.377 95.613-1.424 11.633h-0.032l-7.536-9.952-1.185 9.68h-0.752l1.425-11.6h0.031l7.536 9.983 1.185-9.744h0.752z"/>
	<path d="M25.536,95.613l-0.096,0.769h-3.328l-1.296,10.592h-0.8l1.296-10.592H18l0.097-0.769H25.536z"/>
	<path d="m32.752 103.21h-4.992l-1.968 3.76h-0.784l6.256-11.856h0.065l3.344 11.856h-0.88l-1.041-3.76zm-0.208-0.737-1.52-5.472-2.864 5.472h4.384z"/>
	<path d="m44.225 106.94c-0.587 0.139-1.152 0.208-1.696 0.208-1.174 0-2.192-0.24-3.056-0.72s-1.518-1.136-1.96-1.968c-0.443-0.832-0.644-1.755-0.601-2.769 0.054-1.013 0.32-1.986 0.8-2.92 0.48-0.933 1.179-1.698 2.097-2.296 0.917-0.597 2.021-0.896 3.312-0.896 0.641 0 1.245 0.091 1.816 0.271 0.57 0.182 1.085 0.432 1.544 0.752l-0.368 0.688c-0.395-0.288-0.864-0.515-1.408-0.681-0.544-0.165-1.083-0.248-1.616-0.248-1.205 0-2.21 0.28-3.016 0.841-0.806 0.56-1.4 1.259-1.784 2.096s-0.576 1.678-0.576 2.52c0 0.822 0.179 1.568 0.536 2.24s0.875 1.214 1.552 1.624c0.678 0.411 1.47 0.643 2.376 0.696 0.459 0.021 0.939-8e-3 1.44-0.088s0.934-0.2 1.296-0.36l0.4-3.312h-2.576l0.096-0.736h3.376l-0.56 4.528c-0.364 0.216-0.838 0.391-1.424 0.53z"/>
	<path d="m51.04 95.613-1.296 10.608h6.24l-0.096 0.752h-7.008l1.393-11.36h0.767z"/>
	<path d="m60.32 95.613-1.392 11.36h-0.801l1.393-11.36h0.8z"/>
	<path d="m65.28 106.42c-0.832-0.442-1.493-1.069-1.983-1.88-0.491-0.811-0.736-1.75-0.736-2.816 0-0.981 0.242-1.952 0.729-2.912 0.484-0.96 1.196-1.752 2.136-2.376 0.938-0.624 2.042-0.936 3.312-0.936 0.992 0 1.904 0.221 2.736 0.664 0.832 0.442 1.493 1.071 1.983 1.888 0.491 0.816 0.736 1.758 0.736 2.824 0 0.981-0.243 1.949-0.729 2.903-0.485 0.955-1.197 1.744-2.136 2.368s-2.043 0.937-3.312 0.937c-0.992 0-1.904-0.222-2.736-0.664zm5.624-0.905c0.816-0.544 1.435-1.234 1.856-2.072 0.421-0.837 0.632-1.683 0.632-2.536 0-0.832-0.206-1.604-0.616-2.319-0.411-0.715-0.974-1.282-1.688-1.704-0.714-0.421-1.509-0.632-2.384-0.632-1.099 0-2.053 0.271-2.863 0.815s-1.427 1.235-1.849 2.072c-0.421 0.838-0.632 1.688-0.632 2.552 0 0.832 0.203 1.603 0.608 2.312s0.962 1.274 1.672 1.695c0.709 0.422 1.507 0.633 2.392 0.633 1.099 1e-3 2.056-0.272 2.872-0.816z"/>
	<path d="m86.496 96.542c-0.491-0.16-0.966-0.246-1.424-0.257-0.619 0-1.118 0.115-1.496 0.345-0.379 0.229-0.648 0.501-0.809 0.815-0.159 0.315-0.239 0.611-0.239 0.889 0 0.341 0.109 0.646 0.328 0.912 0.218 0.267 0.487 0.495 0.808 0.688s0.752 0.416 1.296 0.672c0.565 0.256 1.034 0.502 1.408 0.736 0.373 0.234 0.686 0.544 0.936 0.928 0.251 0.384 0.376 0.854 0.376 1.408 0 0.512-0.131 1.032-0.392 1.56-0.262 0.528-0.67 0.969-1.224 1.32-0.556 0.352-1.248 0.528-2.08 0.528-0.779 0-1.48-0.134-2.104-0.4s-1.154-0.597-1.592-0.992l0.432-0.607c0.353 0.352 0.827 0.655 1.424 0.912 0.598 0.256 1.211 0.384 1.841 0.384 0.597 0 1.114-0.128 1.552-0.384 0.438-0.257 0.768-0.587 0.992-0.992s0.336-0.827 0.336-1.265c0-0.607-0.211-1.096-0.632-1.464-0.422-0.368-1.021-0.723-1.801-1.063-0.565-0.256-1.031-0.496-1.399-0.721-0.368-0.224-0.678-0.504-0.929-0.84-0.25-0.336-0.376-0.733-0.376-1.191 0-0.576 0.146-1.08 0.44-1.513 0.293-0.432 0.693-0.765 1.2-1 0.506-0.234 1.069-0.352 1.688-0.352 0.555 0.011 1.106 0.102 1.656 0.272s1.043 0.389 1.48 0.655l-0.385 0.576c-0.383-0.213-0.821-0.4-1.311-0.559z"/>
	<path d="m92.096 95.613-1.393 11.36h-0.8l1.393-11.36h0.8z"/>
	<path d="m106.67 95.357-1.44 11.616h-0.768l1.136-9.328-5.472 6.576h-0.032l-3.84-6.48-1.136 9.232h-0.769l1.44-11.616h0.016l4.464 7.664 6.384-7.664h0.017z"/>
	<path d="m110.14 103.66c0 0.831 0.251 1.487 0.752 1.968 0.501 0.479 1.163 0.72 1.984 0.72 0.971 0 1.768-0.288 2.392-0.864s0.995-1.359 1.112-2.352l0.912-7.521h0.8l-0.912 7.568c-0.16 1.237-0.63 2.2-1.408 2.888s-1.775 1.032-2.992 1.032c-1.034 0-1.869-0.293-2.504-0.88s-0.951-1.397-0.951-2.432c0-0.267 0.01-0.47 0.031-0.608l0.929-7.568h0.8l-0.912 7.521c-0.023 0.255-0.033 0.431-0.033 0.528z"/>
	<path d="m122.53 95.613-1.296 10.608h6.24l-0.097 0.752h-7.008l1.393-11.36h0.768z"/>
	<path d="m136.35 103.21h-4.992l-1.968 3.76h-0.784l6.256-11.856h0.064l3.344 11.856h-0.88l-1.04-3.76zm-0.208-0.737-1.52-5.472-2.863 5.472h4.383z"/>
	<path d="m147.97 95.613-0.096 0.769h-3.328l-1.296 10.592h-0.801l1.296-10.592h-3.311l0.096-0.769h7.44z"/>
	<path d="m151.42 106.42c-0.832-0.442-1.493-1.069-1.984-1.88-0.49-0.811-0.735-1.75-0.735-2.816 0-0.981 0.242-1.952 0.727-2.912s1.197-1.752 2.137-2.376c0.939-0.624 2.042-0.936 3.311-0.936 0.992 0 1.904 0.221 2.736 0.664 0.832 0.442 1.493 1.071 1.983 1.888 0.491 0.816 0.736 1.758 0.736 2.824 0 0.981-0.243 1.949-0.729 2.903-0.485 0.955-1.197 1.744-2.136 2.368s-2.043 0.937-3.311 0.937c-0.991 0-1.903-0.222-2.735-0.664zm5.624-0.905c0.816-0.544 1.435-1.234 1.856-2.072 0.421-0.837 0.632-1.683 0.632-2.536 0-0.832-0.206-1.604-0.616-2.319-0.411-0.715-0.974-1.282-1.689-1.704-0.714-0.421-1.509-0.632-2.384-0.632-1.099 0-2.054 0.271-2.863 0.815-0.811 0.544-1.427 1.235-1.849 2.072-0.421 0.838-0.632 1.688-0.632 2.552 0 0.832 0.202 1.603 0.608 2.312 0.405 0.709 0.962 1.274 1.672 1.695 0.709 0.422 1.506 0.633 2.392 0.633 1.099 1e-3 2.056-0.272 2.873-0.816z"/>
	<path d="m168.91 106.97-2.368-4.832c-0.246 0.043-0.539 0.064-0.88 0.064h-1.744l-0.592 4.768h-0.769l1.393-11.36h2.592c0.555 0 1.074 0.102 1.56 0.305 0.485 0.202 0.88 0.509 1.185 0.92 0.304 0.41 0.456 0.925 0.456 1.544 0 0.085-0.011 0.234-0.032 0.448-0.086 0.693-0.323 1.319-0.712 1.88-0.39 0.56-0.936 0.968-1.641 1.224l2.465 5.04-0.913-1e-3zm-3.185-5.519c1.035 0 1.803-0.257 2.305-0.769 0.501-0.512 0.794-1.12 0.88-1.824 0.01-0.063 0.016-0.165 0.016-0.304 0-0.629-0.214-1.152-0.64-1.568-0.427-0.416-1.009-0.624-1.744-0.624h-1.92l-0.608 5.089h1.711z"/>
</g>
</svg>
